<?xml version="1.0" standalone="no"?>
<!DOCTYPE svg PUBLIC "-//W3C//DTD SVG 20010904//EN"
 "http://www.w3.org/TR/2001/REC-SVG-20010904/DTD/svg10.dtd">
<svg version="1.0" xmlns="http://www.w3.org/2000/svg"
 width="16.000000pt" height="16.000000pt" viewBox="0 0 16.000000 16.000000"
 preserveAspectRatio="xMidYMid meet">
<metadata>
Created by potrace 1.11, written by Peter Selinger 2001-2013
</metadata>
<g transform="translate(0.000000,16.000000) scale(0.002286,-0.002286)"
fill="#000000" stroke="none">
<path d="M1045 6993 c-153 -19 -271 -55 -407 -125 -221 -113 -393 -285 -506
-506 -57 -113 -84 -185 -109 -302 -17 -81 -18 -203 -18 -2560 0 -2357 1 -2479
18 -2560 25 -117 52 -189 109 -302 113 -221 285 -393 506 -506 113 -57 185
-84 302 -109 81 -17 203 -18 2560 -18 2357 0 2479 1 2560 18 117 25 189 52
302 109 221 113 393 285 506 506 57 113 84 185 109 302 17 81 18 203 18 2560
0 2357 -1 2479 -18 2560 -25 117 -52 189 -109 302 -159 312 -439 528 -798 614
-71 17 -198 18 -2535 20 -1353 1 -2473 -1 -2490 -3z m3153 -1536 c474 -90 753
-305 856 -659 51 -178 56 -431 11 -603 -20 -75 -79 -203 -122 -264 -80 -113
-219 -228 -360 -300 -35 -17 -63 -35 -63 -39 0 -5 23 -14 51 -20 28 -7 85 -26
127 -43 372 -148 581 -504 582 -990 0 -286 -90 -539 -257 -718 -188 -203 -452
-329 -833 -398 -85 -15 -209 -17 -1192 -20 l-1098 -4 0 2041 0 2041 1108 -4
c955 -3 1118 -6 1190 -20z"/>
<path d="M2620 4335 l0 -566 653 4 c572 3 659 5 707 20 158 48 287 149 344
271 44 92 56 153 56 284 -1 251 -75 398 -243 477 -141 67 -142 67 -864 72
l-653 5 0 -567z"/>
<path d="M2620 2620 l0 -641 713 3 c698 3 714 4 790 26 114 32 192 77 272 157
121 120 168 249 168 460 0 208 -51 343 -173 459 -79 74 -158 116 -281 147 -81
21 -105 22 -786 26 l-703 5 0 -642z"/>
</g>
</svg>
