<svg xmlns="http://www.w3.org/2000/svg" xmlns:xlink="http://www.w3.org/1999/xlink" preserveAspectRatio="xMidYMid" width="67" height="51" viewBox="0 0 67 51">
  <defs>
    <style>
      .cls-1 {
        fill: #fff;
        fill-rule: evenodd;
      }
    </style>
  </defs>
  <g>
    <path d="M5.500,-0.000 L61.500,-0.000 C64.538,-0.000 67.000,2.462 67.000,5.500 C67.000,8.537 64.538,11.000 61.500,11.000 L5.500,11.000 C2.462,11.000 -0.000,8.537 -0.000,5.500 C-0.000,2.462 2.462,-0.000 5.500,-0.000 Z" class="cls-1"/>
    <path d="M5.500,20.000 L61.500,20.000 C64.538,20.000 67.000,22.462 67.000,25.500 C67.000,28.537 64.538,31.000 61.500,31.000 L5.500,31.000 C2.462,31.000 -0.000,28.537 -0.000,25.500 C-0.000,22.462 2.462,20.000 5.500,20.000 Z" class="cls-1"/>
    <path d="M5.500,40.000 L61.500,40.000 C64.538,40.000 67.000,42.462 67.000,45.500 C67.000,48.538 64.538,51.000 61.500,51.000 L5.500,51.000 C2.462,51.000 -0.000,48.538 -0.000,45.500 C-0.000,42.462 2.462,40.000 5.500,40.000 Z" class="cls-1"/>
  </g>
</svg>
